<svg width="28" height="28" viewBox="0 0 28 28" fill="none" xmlns="http://www.w3.org/2000/svg">
<path fill-rule="evenodd" clip-rule="evenodd" d="M16.1213 14L21.8086 19.6872C22.0406 19.9192 22.1761 20.1401 22.2458 20.37C22.3155 20.5999 22.3155 20.8351 22.2458 21.065C22.1761 21.2949 22.0406 21.5158 21.8086 21.7478L21.7478 21.8085C21.5158 22.0406 21.2949 22.1761 21.065 22.2458C20.8351 22.3155 20.6 22.3155 20.3701 22.2458C20.1401 22.1761 19.9193 22.0406 19.6872 21.8085L14 16.1213L8.3128 21.8085C8.08079 22.0406 7.85991 22.1761 7.62999 22.2458C7.40008 22.3155 7.16494 22.3155 6.93503 22.2458C6.70511 22.1761 6.48423 22.0406 6.25222 21.8085L6.19148 21.7478C5.95947 21.5158 5.82392 21.2949 5.75423 21.065C5.68454 20.8351 5.68454 20.5999 5.75423 20.37C5.82392 20.1401 5.95947 19.9192 6.19148 19.6872L11.8787 14L6.19148 8.31277C5.95947 8.08076 5.82392 7.85988 5.75423 7.62996C5.68454 7.40004 5.68454 7.16491 5.75423 6.935C5.82392 6.70508 5.95947 6.4842 6.19148 6.25219L6.25222 6.19145C6.48423 5.95943 6.70511 5.82389 6.93503 5.7542C7.16494 5.68451 7.40008 5.68451 7.62999 5.7542C7.85991 5.82389 8.08079 5.95943 8.3128 6.19145L14 11.8787L19.6872 6.19145C19.9193 5.95943 20.1401 5.82389 20.3701 5.7542C20.6 5.68451 20.8351 5.68451 21.065 5.7542C21.2949 5.82389 21.5158 5.95943 21.7478 6.19145L21.8086 6.25219C22.0406 6.4842 22.1761 6.70508 22.2458 6.935C22.3155 7.16491 22.3155 7.40004 22.2458 7.62996C22.1761 7.85988 22.0406 8.08076 21.8086 8.31277L16.1213 14Z" fill="#333333"/>
</svg>
